<mxfile host="app.diagrams.net" agent="Mozilla/5.0 (X11; Linux x86_64) AppleWebKit/537.36 (KHTML, like Gecko) Chrome/133.0.0.0 Safari/537.36" version="26.2.13">
  <diagram name="1 oldal" id="JzuVsXdX_z2O8fmOlIwq">
    <mxGraphModel dx="778" dy="434" grid="1" gridSize="10" guides="1" tooltips="1" connect="1" arrows="1" fold="1" page="1" pageScale="1" pageWidth="827" pageHeight="1169" math="0" shadow="0">
      <root>
        <mxCell id="0" />
        <mxCell id="1" parent="0" />
        <mxCell id="xIjGKDkZAIfZ9lCkAd6H-6" value="" style="rounded=0;whiteSpace=wrap;html=1;fillColor=none;" vertex="1" parent="1">
          <mxGeometry x="230" y="20" width="220" height="140" as="geometry" />
        </mxCell>
        <mxCell id="xIjGKDkZAIfZ9lCkAd6H-3" value="&lt;font style=&quot;font-size: 20px;&quot;&gt;Manager&lt;/font&gt;" style="text;html=1;align=center;verticalAlign=middle;resizable=0;points=[];autosize=1;strokeColor=none;fillColor=none;" vertex="1" parent="1">
          <mxGeometry x="230" y="20" width="100" height="40" as="geometry" />
        </mxCell>
        <mxCell id="xIjGKDkZAIfZ9lCkAd6H-4" value="sqlite db" style="rounded=0;whiteSpace=wrap;html=1;" vertex="1" parent="1">
          <mxGeometry x="360" y="75" width="70" height="30" as="geometry" />
        </mxCell>
        <mxCell id="xIjGKDkZAIfZ9lCkAd6H-8" value="" style="edgeStyle=orthogonalEdgeStyle;rounded=0;orthogonalLoop=1;jettySize=auto;html=1;startArrow=classic;startFill=1;" edge="1" parent="1" source="xIjGKDkZAIfZ9lCkAd6H-5" target="xIjGKDkZAIfZ9lCkAd6H-4">
          <mxGeometry relative="1" as="geometry" />
        </mxCell>
        <mxCell id="xIjGKDkZAIfZ9lCkAd6H-5" value="gin engine" style="rounded=0;whiteSpace=wrap;html=1;" vertex="1" parent="1">
          <mxGeometry x="240" y="75" width="80" height="30" as="geometry" />
        </mxCell>
        <mxCell id="xIjGKDkZAIfZ9lCkAd6H-9" value="" style="rounded=0;whiteSpace=wrap;html=1;fillColor=none;" vertex="1" parent="1">
          <mxGeometry x="20" y="20" width="120" height="140" as="geometry" />
        </mxCell>
        <mxCell id="xIjGKDkZAIfZ9lCkAd6H-10" value="&lt;font style=&quot;font-size: 20px;&quot;&gt;Integration&lt;/font&gt;" style="text;html=1;align=center;verticalAlign=middle;resizable=0;points=[];autosize=1;strokeColor=none;fillColor=none;" vertex="1" parent="1">
          <mxGeometry x="20" y="20" width="120" height="40" as="geometry" />
        </mxCell>
        <mxCell id="xIjGKDkZAIfZ9lCkAd6H-12" style="edgeStyle=orthogonalEdgeStyle;rounded=0;orthogonalLoop=1;jettySize=auto;html=1;exitX=1;exitY=0.5;exitDx=0;exitDy=0;entryX=0;entryY=0.5;entryDx=0;entryDy=0;" edge="1" parent="1" source="xIjGKDkZAIfZ9lCkAd6H-11" target="xIjGKDkZAIfZ9lCkAd6H-6">
          <mxGeometry relative="1" as="geometry" />
        </mxCell>
        <mxCell id="xIjGKDkZAIfZ9lCkAd6H-13" value="REST" style="edgeLabel;html=1;align=center;verticalAlign=middle;resizable=0;points=[];" vertex="1" connectable="0" parent="xIjGKDkZAIfZ9lCkAd6H-12">
          <mxGeometry x="0.0171" y="-1" relative="1" as="geometry">
            <mxPoint as="offset" />
          </mxGeometry>
        </mxCell>
        <mxCell id="xIjGKDkZAIfZ9lCkAd6H-11" value="pytest" style="rounded=0;whiteSpace=wrap;html=1;" vertex="1" parent="1">
          <mxGeometry x="70" y="75" width="60" height="30" as="geometry" />
        </mxCell>
      </root>
    </mxGraphModel>
  </diagram>
</mxfile>
